<svg
  version="1.1"
  xmlns="http://www.w3.org/2000/svg"
  viewBox="0 0 70.57908000239763 70.57908000239763"
  width="70.57908000239763"
  height="70.57908000239763">
  <rect
    x="0"
    y="0"
    width="70.57908000239763"
    height="70.57908000239763"
    fill="#eeeeee00"></rect>
  <g
    stroke-linecap="round"
    transform="translate(10 10) rotate(0 25.289540001198816 25.289540001198816)">
    <path
      d="M50.58 25.29 C50.58 26.75, 50.45 28.24, 50.19 29.68 C49.94 31.12, 49.55 32.56, 49.05 33.94 C48.55 35.31, 47.92 36.67, 47.19 37.93 C46.46 39.2, 45.6 40.42, 44.66 41.55 C43.72 42.67, 42.67 43.72, 41.55 44.66 C40.42 45.6, 39.2 46.46, 37.93 47.19 C36.67 47.92, 35.31 48.55, 33.94 49.05 C32.56 49.55, 31.12 49.94, 29.68 50.19 C28.24 50.45, 26.75 50.58, 25.29 50.58 C23.83 50.58, 22.34 50.45, 20.9 50.19 C19.46 49.94, 18.02 49.55, 16.64 49.05 C15.26 48.55, 13.91 47.92, 12.64 47.19 C11.38 46.46, 10.16 45.6, 9.03 44.66 C7.91 43.72, 6.86 42.67, 5.92 41.55 C4.98 40.42, 4.12 39.2, 3.39 37.93 C2.66 36.67, 2.03 35.31, 1.53 33.94 C1.02 32.56, 0.64 31.12, 0.38 29.68 C0.13 28.24, 0 26.75, 0 25.29 C0 23.83, 0.13 22.34, 0.38 20.9 C0.64 19.46, 1.02 18.02, 1.53 16.64 C2.03 15.26, 2.66 13.91, 3.39 12.64 C4.12 11.38, 4.98 10.16, 5.92 9.03 C6.86 7.91, 7.91 6.86, 9.03 5.92 C10.16 4.98, 11.38 4.12, 12.64 3.39 C13.91 2.66, 15.26 2.03, 16.64 1.53 C18.02 1.02, 19.46 0.64, 20.9 0.38 C22.34 0.13, 23.83 0, 25.29 0 C26.75 0, 28.24 0.13, 29.68 0.38 C31.12 0.64, 32.56 1.02, 33.94 1.53 C35.31 2.03, 36.67 2.66, 37.93 3.39 C39.2 4.12, 40.42 4.98, 41.55 5.92 C42.67 6.86, 43.72 7.91, 44.66 9.03 C45.6 10.16, 46.46 11.38, 47.19 12.64 C47.92 13.91, 48.55 15.26, 49.05 16.64 C49.55 18.02, 49.94 19.46, 50.19 20.9 C50.45 22.34, 50.52 24.56, 50.58 25.29 C50.64 26.02, 50.64 24.56, 50.58 25.29"
      stroke="#eeeeee"
      stroke-width="4"
      fill="none"></path>
  </g>
  <g stroke-linecap="round">
    <g
      transform="translate(32.72750398612288 26.65127899224359) rotate(5.074998060558125 -0.0457902692350558 8.174785530246822)">
      <path
        d="M-0.08 0.92 C-0.38 3.29, -0.66 12.23, -0.61 14.87 M-1.58 0.36 C-1.63 2.81, 1.35 13.56, 1.49 15.99"
        stroke="#eeeeee"
        stroke-width="2"
        fill="none"></path>
    </g>
  </g>

  <g stroke-linecap="round">
    <g
      transform="translate(48.09519242011493 56.3499876133651) rotate(0 -0.5823636659398517 -21.428801284085637)">
      <path
        d="M0.19 0.75 C0.13 -6.62, 0.26 -36.38, 0.13 -43.6 M-1.16 0.09 C-1.45 -7.11, -1.45 -34.61, -0.95 -42.01"
        stroke="#eeeeee"
        stroke-width="2"
        fill="none"></path>
    </g>
  </g>

  <g stroke-linecap="round">
    <g
      transform="translate(38.86535668559873 43.39624074656683) rotate(0 -13.205486512043024 -0.5405907981097471)">
      <path
        d="M0.98 0.01 C-3.42 -0.13, -22.74 -1.08, -27.39 -1.09 M0.03 -1.03 C-3.91 -1.03, -20.57 -0.5, -25.25 -0.13"
        stroke="#eeeeee"
        stroke-width="2"
        fill="none"></path>
    </g>
  </g>

  <g stroke-linecap="round">
    <g
      transform="translate(46.95254324472285 28.005789465275427) rotate(0 -7.221606579588695 -0.23315957859455239)">
      <path
        d="M-1 0.21 C-3.44 0.03, -12.07 -0.78, -14.71 -0.85 M0.68 -0.73 C-1.83 -0.76, -12.59 0.08, -15.12 0.38"
        stroke="#eeeeee"
        stroke-width="2"
        fill="none"></path>
    </g>
  </g>

  <g stroke-linecap="round">
    <g
      transform="translate(21.37334830684449 13.471561265241007) rotate(0 0.4622853924520314 13.984645951647849)">
      <path
        d="M0.5 -0.75 C1.55 6.67, 0.79 17.16, 1.77 28.42 M0.98 -0.69 C-0.26 9.4, -0.36 17.75, -0.85 28.72"
        stroke="#eeeeee"
        stroke-width="2"
        fill="none"></path>
    </g>
  </g>
</svg>

